<svg width="131" height="42" viewBox="0 0 131 42" fill="none" xmlns="http://www.w3.org/2000/svg">
<g clip-path="url(#clip0_406480_4081)">
<path d="M40.7059 21.2435C40.0616 21.6134 39.28 21.9058 38.3612 22.1205C37.4424 22.3353 36.4878 22.4427 35.4974 22.4427C34.1609 22.4427 33.0213 22.2816 32.0787 21.9594C31.1479 21.6373 30.4439 21.1898 29.9666 20.617C29.5012 20.0443 29.2686 19.382 29.2686 18.6303C29.2686 17.974 29.4475 17.3952 29.8055 16.8941C30.1635 16.3929 30.6587 16.0051 31.2911 15.7306C30.8019 15.4801 30.426 15.134 30.1635 14.6925C29.9129 14.2391 29.7876 13.7439 29.7876 13.2069C29.7876 12.5148 30.0024 11.8824 30.432 11.3096C30.8735 10.7369 31.5417 10.2775 32.4367 9.93142C33.3316 9.58538 34.4354 9.41235 35.7479 9.41235C36.5713 9.41235 37.3827 9.48992 38.1822 9.64504C38.9817 9.80016 39.6857 10.009 40.2942 10.2715L39.3277 12.9205C38.218 12.4313 37.0725 12.1867 35.8911 12.1867C35.0439 12.1867 34.4115 12.3 33.9939 12.5268C33.5762 12.7415 33.3674 13.0458 33.3674 13.4396C33.3674 14.1555 33.8865 14.5135 34.9246 14.5135H38.4686V17.2163H34.6919C34.0833 17.2163 33.6239 17.3177 33.3137 17.5205C33.0034 17.7115 32.8483 17.9978 32.8483 18.3797C32.8483 18.7854 33.075 19.1016 33.5285 19.3283C33.9819 19.555 34.6859 19.6684 35.6405 19.6684C36.3207 19.6684 37.0188 19.5789 37.7347 19.3999C38.4626 19.209 39.095 18.9524 39.632 18.6303L40.7059 21.2435Z" fill="white"/>
<path d="M49.8283 17.1089C50.9381 17.4788 51.4929 18.2425 51.4929 19.3999C51.4929 20.271 51.1528 20.9571 50.4727 21.4583C49.7925 21.9475 48.7902 22.1921 47.4657 22.1921H42.0065V12.491H47.2151C48.4799 12.491 49.4584 12.7117 50.1505 13.1532C50.8545 13.5947 51.2065 14.2152 51.2065 15.0147C51.2065 15.4801 51.0872 15.8917 50.8486 16.2497C50.6099 16.6077 50.2698 16.8941 49.8283 17.1089ZM45.0493 16.3929H46.9108C47.6984 16.3929 48.0921 16.1006 48.0921 15.5159C48.0921 14.955 47.6984 14.6746 46.9108 14.6746H45.0493V16.3929ZM47.1614 19.9906C47.9847 19.9906 48.3964 19.6923 48.3964 19.0956C48.3964 18.499 47.9967 18.2007 47.1972 18.2007H45.0493V19.9906H47.1614Z" fill="white"/>
<path d="M57.7571 18.7377H56.6116V22.1921H53.2108V12.491H56.6116V16.0707H57.8287L60.2092 12.491H63.8069L60.5493 17.1447L64.0217 22.1921H60.0124L57.7571 18.7377Z" fill="white"/>
<path d="M75.0294 12.491V22.1921H71.6286V15.1937H69.1764L69.1048 16.6793C69.0571 17.9441 68.9318 18.9882 68.729 19.8116C68.5261 20.6349 68.192 21.2793 67.7266 21.7447C67.2612 22.1981 66.6229 22.4248 65.8114 22.4248C65.3938 22.4248 64.8449 22.3473 64.1647 22.1921L64.3079 19.4178C64.5227 19.4417 64.6659 19.4536 64.7375 19.4536C65.1074 19.4536 65.3878 19.3343 65.5788 19.0956C65.7697 18.857 65.9009 18.5408 65.9725 18.147C66.0441 17.7413 66.0919 17.2043 66.1157 16.5361L66.2589 12.491H75.0294Z" fill="white"/>
<path d="M87.3024 12.491V22.1921H84.0627V21.1719C83.7047 21.5537 83.2751 21.8461 82.774 22.0489C82.2847 22.2518 81.7597 22.3532 81.1989 22.3532C79.934 22.3532 78.9257 21.9833 78.174 21.2435C77.4341 20.5037 77.0642 19.3939 77.0642 17.9143V12.491H80.465V17.3594C80.465 18.7556 81.0079 19.4536 82.0938 19.4536C82.6308 19.4536 83.0663 19.2687 83.4004 18.8987C83.7345 18.5169 83.9016 17.9382 83.9016 17.1626V12.491H87.3024Z" fill="white"/>
<path d="M99.913 12.491V20.4201C99.913 22.222 99.4237 23.5703 98.4453 24.4653C97.4668 25.3722 96.0587 25.8256 94.2211 25.8256C93.2665 25.8256 92.3716 25.7182 91.5363 25.5034C90.701 25.2886 89.991 24.9724 89.4063 24.5548L90.6413 22.1742C91.0351 22.4964 91.5303 22.747 92.127 22.926C92.7355 23.1169 93.3321 23.2124 93.9168 23.2124C94.8118 23.2124 95.4681 23.0155 95.8857 22.6217C96.3034 22.2279 96.5122 21.6432 96.5122 20.8676V20.5454C95.8559 21.3091 94.8953 21.691 93.6305 21.691C92.7713 21.691 91.9778 21.5 91.2499 21.1182C90.522 20.7244 89.9433 20.1755 89.5137 19.4715C89.0841 18.7556 88.8694 17.9322 88.8694 17.0015C88.8694 16.0827 89.0841 15.2712 89.5137 14.5672C89.9433 13.8513 90.522 13.3024 91.2499 12.9205C91.9778 12.5268 92.7713 12.3299 93.6305 12.3299C95.0146 12.3299 96.0289 12.7773 96.6733 13.6723V12.491H99.913ZM94.4359 18.9882C95.0445 18.9882 95.5456 18.8033 95.9394 18.4334C96.3451 18.0635 96.548 17.5862 96.548 17.0015C96.548 16.4168 96.3511 15.9454 95.9573 15.5875C95.5635 15.2175 95.0564 15.0326 94.4359 15.0326C93.8154 15.0326 93.3023 15.2175 92.8966 15.5875C92.5028 15.9454 92.3059 16.4168 92.3059 17.0015C92.3059 17.5862 92.5088 18.0635 92.9145 18.4334C93.3202 18.8033 93.8273 18.9882 94.4359 18.9882Z" fill="white"/>
<path d="M34.7862 26.9329V32.7742H33.1507V28.243H30.931V32.7742H29.3037V26.9329H34.7862Z" fill="white"/>
<path d="M38.3631 28.1763C38.8583 28.1763 39.2894 28.2709 39.6566 28.46C40.0237 28.6491 40.3047 28.9217 40.4994 29.2778C40.6997 29.6283 40.7998 30.0399 40.7998 30.5128C40.7998 30.9801 40.708 31.3918 40.5244 31.7478C40.3408 32.0983 40.0821 32.3709 39.7484 32.5656C39.4146 32.7548 39.0279 32.8493 38.5884 32.8493C38.0711 32.8493 37.665 32.6908 37.3701 32.3737V34.3931H35.7846V30.5295C35.7846 30.0622 35.8903 29.6505 36.1017 29.2945C36.3131 28.9384 36.6135 28.6631 37.0029 28.4683C37.3924 28.2736 37.8458 28.1763 38.3631 28.1763ZM38.288 31.5893C38.5718 31.5893 38.7998 31.4919 38.9723 31.2972C39.1503 31.0969 39.2393 30.8355 39.2393 30.5128C39.2393 30.1901 39.1503 29.9315 38.9723 29.7367C38.7998 29.5365 38.5718 29.4363 38.288 29.4363C38.0043 29.4363 37.7762 29.5365 37.6038 29.7367C37.4313 29.9315 37.3451 30.1901 37.3451 30.5128C37.3451 30.841 37.4285 31.1025 37.5954 31.2972C37.7679 31.4919 37.9987 31.5893 38.288 31.5893Z" fill="white"/>
<path d="M43.7941 32.8493C43.3101 32.8493 42.8734 32.7492 42.484 32.5489C42.0946 32.3486 41.7886 32.0705 41.5661 31.7144C41.3491 31.3584 41.2406 30.9551 41.2406 30.5045C41.2406 30.0594 41.3491 29.6589 41.5661 29.3028C41.7886 28.9468 42.0918 28.6714 42.4757 28.4767C42.8651 28.2764 43.3046 28.1763 43.7941 28.1763C44.2837 28.1763 44.7232 28.2764 45.1126 28.4767C45.502 28.6714 45.8052 28.9468 46.0222 29.3028C46.2391 29.6533 46.3476 30.0538 46.3476 30.5045C46.3476 30.9551 46.2391 31.3584 46.0222 31.7144C45.8052 32.0705 45.502 32.3486 45.1126 32.5489C44.7232 32.7492 44.2837 32.8493 43.7941 32.8493ZM43.7941 31.5893C44.0723 31.5893 44.3004 31.4947 44.4784 31.3056C44.6564 31.1108 44.7454 30.8438 44.7454 30.5045C44.7454 30.1707 44.6564 29.9092 44.4784 29.7201C44.3004 29.5309 44.0723 29.4363 43.7941 29.4363C43.516 29.4363 43.2879 29.5309 43.1099 29.7201C42.9318 29.9092 42.8428 30.1707 42.8428 30.5045C42.8428 30.8438 42.9318 31.1108 43.1099 31.3056C43.2879 31.4947 43.516 31.5893 43.7941 31.5893Z" fill="white"/>
<path d="M49.4861 31.6393C49.7031 31.6393 49.8895 31.6087 50.0452 31.5476C50.2066 31.4864 50.3679 31.3862 50.5292 31.2471L51.3554 32.115C50.927 32.6045 50.2872 32.8493 49.4361 32.8493C48.9076 32.8493 48.4431 32.7492 48.0425 32.5489C47.642 32.3486 47.3304 32.0705 47.1079 31.7144C46.8909 31.3584 46.7824 30.9551 46.7824 30.5045C46.7824 30.0594 46.8909 29.6616 47.1079 29.3112C47.3249 28.9551 47.6225 28.677 48.0008 28.4767C48.3846 28.2764 48.813 28.1763 49.2859 28.1763C49.7254 28.1763 50.1259 28.2681 50.4875 28.4517C50.8547 28.6297 51.1467 28.8939 51.3637 29.2444C51.5807 29.5893 51.6892 30.001 51.6892 30.4794L48.4597 31.0969C48.6322 31.4585 48.9743 31.6393 49.4861 31.6393ZM49.2942 29.3028C49.0216 29.3028 48.7991 29.389 48.6266 29.5615C48.4542 29.7284 48.3568 29.9704 48.3346 30.2875L50.1704 29.9287C50.1148 29.7395 50.0091 29.5893 49.8533 29.4781C49.6975 29.3612 49.5112 29.3028 49.2942 29.3028Z" fill="white"/>
<path d="M54.5648 31.1637H54.0307V32.7742H52.4452V28.2514H54.0307V29.9203H54.5981L55.708 28.2514H57.3853L55.8665 30.421L57.4854 32.7742H55.6162L54.5648 31.1637Z" fill="white"/>
<path d="M63.9025 28.1763C64.4588 28.1763 64.901 28.3432 65.2293 28.677C65.5631 29.0107 65.73 29.5142 65.73 30.1874V32.7742H64.1445V30.446C64.1445 30.1289 64.0833 29.8953 63.9609 29.7451C63.844 29.5949 63.6771 29.5198 63.4602 29.5198C63.221 29.5198 63.029 29.6032 62.8844 29.7701C62.7398 29.937 62.6674 30.1901 62.6674 30.5295V32.7742H61.0819V30.446C61.0819 29.8285 60.8538 29.5198 60.3977 29.5198C60.1529 29.5198 59.9582 29.6032 59.8135 29.7701C59.6689 29.937 59.5966 30.1901 59.5966 30.5295V32.7742H58.0111V28.2514H59.5215V28.727C59.6884 28.5434 59.8859 28.4071 60.1139 28.3181C60.3476 28.2236 60.6007 28.1763 60.8733 28.1763C61.1904 28.1763 61.4741 28.2347 61.7245 28.3515C61.9748 28.4683 62.1779 28.6464 62.3336 28.8856C62.5117 28.6575 62.737 28.4823 63.0096 28.3599C63.2822 28.2375 63.5798 28.1763 63.9025 28.1763Z" fill="white"/>
<path d="M66.6899 28.2514H68.2671V29.9287H69.8943V28.2514H71.4798V32.7742H69.8943V31.1887H68.2671V32.7742H66.6899V28.2514Z" fill="white"/>
<path d="M74.7021 32.9077C73.2056 32.9077 72.4574 32.2652 72.4574 30.9801V28.2514H74.0345V29.6867C74.1514 29.6088 74.3071 29.5448 74.5018 29.4947C74.7021 29.4447 74.9302 29.4196 75.1861 29.4196C75.7424 29.4196 76.1791 29.5615 76.4962 29.8452C76.8133 30.1234 76.9719 30.5378 76.9719 31.0886C76.9719 31.6838 76.766 32.1372 76.3544 32.4488C75.9483 32.7548 75.3975 32.9077 74.7021 32.9077ZM77.3474 28.2514H78.9329V32.7742H77.3474V28.2514ZM74.7021 31.8229C74.9191 31.8229 75.0832 31.759 75.1945 31.631C75.3057 31.503 75.3613 31.3334 75.3613 31.122C75.3613 30.9161 75.3057 30.7548 75.1945 30.638C75.0832 30.5211 74.9219 30.4627 74.7105 30.4627C74.5603 30.4627 74.4267 30.4906 74.3099 30.5462C74.1931 30.6018 74.1013 30.6769 74.0345 30.7715V31.122C74.0345 31.3389 74.0902 31.5114 74.2014 31.6393C74.3127 31.7617 74.4796 31.8229 74.7021 31.8229Z" fill="white"/>
<path d="M82.3924 31.6393C82.6094 31.6393 82.7958 31.6087 82.9515 31.5476C83.1129 31.4864 83.2742 31.3862 83.4355 31.2471L84.2617 32.115C83.8333 32.6045 83.1935 32.8493 82.3424 32.8493C81.8139 32.8493 81.3493 32.7492 80.9488 32.5489C80.5483 32.3486 80.2367 32.0705 80.0142 31.7144C79.7972 31.3584 79.6887 30.9551 79.6887 30.5045C79.6887 30.0594 79.7972 29.6616 80.0142 29.3112C80.2312 28.9551 80.5288 28.677 80.9071 28.4767C81.2909 28.2764 81.7193 28.1763 82.1922 28.1763C82.6317 28.1763 83.0322 28.2681 83.3938 28.4517C83.761 28.6297 84.053 28.8939 84.27 29.2444C84.487 29.5893 84.5954 30.001 84.5954 30.4794L81.366 31.0969C81.5385 31.4585 81.8806 31.6393 82.3924 31.6393ZM82.2005 29.3028C81.9279 29.3028 81.7054 29.389 81.5329 29.5615C81.3605 29.7284 81.2631 29.9704 81.2409 30.2875L83.0767 29.9287C83.0211 29.7395 82.9154 29.5893 82.7596 29.4781C82.6038 29.3612 82.4175 29.3028 82.2005 29.3028Z" fill="white"/>
<path d="M90.0497 32.8493C89.549 32.8493 89.1012 32.7492 88.7062 32.5489C88.3112 32.3486 88.0025 32.0705 87.7799 31.7144C87.563 31.3584 87.4545 30.9551 87.4545 30.5045C87.4545 30.0538 87.563 29.6533 87.7799 29.3028C88.0025 28.9468 88.3112 28.6714 88.7062 28.4767C89.1012 28.2764 89.549 28.1763 90.0497 28.1763C90.5615 28.1763 91.0038 28.2875 91.3765 28.5101C91.7493 28.727 92.0135 29.0302 92.1693 29.4196L90.9426 30.0455C90.7368 29.6394 90.4363 29.4363 90.0414 29.4363C89.7576 29.4363 89.5212 29.5309 89.3321 29.7201C89.1485 29.9092 89.0567 30.1707 89.0567 30.5045C89.0567 30.8438 89.1485 31.1108 89.3321 31.3056C89.5212 31.4947 89.7576 31.5893 90.0414 31.5893C90.4363 31.5893 90.7368 31.3862 90.9426 30.9801L92.1693 31.606C92.0135 31.9954 91.7493 32.3014 91.3765 32.5239C91.0038 32.7408 90.5615 32.8493 90.0497 32.8493Z" fill="white"/>
<path d="M97.4888 28.2514V32.7742H95.9784V32.2986C95.8115 32.4766 95.6112 32.6129 95.3776 32.7075C95.1495 32.802 94.9047 32.8493 94.6432 32.8493C94.0535 32.8493 93.5834 32.6769 93.233 32.332C92.8881 31.987 92.7156 31.4697 92.7156 30.7798V28.2514H94.3011V30.5211C94.3011 31.172 94.5542 31.4975 95.0605 31.4975C95.3108 31.4975 95.5139 31.4113 95.6696 31.2388C95.8254 31.0608 95.9033 30.791 95.9033 30.4294V28.2514H97.4888Z" fill="white"/>
<path d="M100.823 32.8493C100.322 32.8493 99.8744 32.7492 99.4794 32.5489C99.0844 32.3486 98.7757 32.0705 98.5531 31.7144C98.3362 31.3584 98.2277 30.9551 98.2277 30.5045C98.2277 30.0538 98.3362 29.6533 98.5531 29.3028C98.7757 28.9468 99.0844 28.6714 99.4794 28.4767C99.8744 28.2764 100.322 28.1763 100.823 28.1763C101.335 28.1763 101.777 28.2875 102.15 28.5101C102.522 28.727 102.787 29.0302 102.942 29.4196L101.716 30.0455C101.51 29.6394 101.21 29.4363 100.815 29.4363C100.531 29.4363 100.294 29.5309 100.105 29.7201C99.9217 29.9092 99.8299 30.1707 99.8299 30.5045C99.8299 30.8438 99.9217 31.1108 100.105 31.3056C100.294 31.4947 100.531 31.5893 100.815 31.5893C101.21 31.5893 101.51 31.3862 101.716 30.9801L102.942 31.606C102.787 31.9954 102.522 32.3014 102.15 32.5239C101.777 32.7408 101.335 32.8493 100.823 32.8493Z" fill="white"/>
<path d="M109.497 28.1763C110.053 28.1763 110.496 28.3432 110.824 28.677C111.158 29.0107 111.324 29.5142 111.324 30.1874V32.7742H109.739V30.446C109.739 30.1289 109.678 29.8953 109.555 29.7451C109.439 29.5949 109.272 29.5198 109.055 29.5198C108.815 29.5198 108.624 29.6032 108.479 29.7701C108.334 29.937 108.262 30.1901 108.262 30.5295V32.7742H106.676V30.446C106.676 29.8285 106.448 29.5198 105.992 29.5198C105.747 29.5198 105.553 29.6032 105.408 29.7701C105.263 29.937 105.191 30.1901 105.191 30.5295V32.7742H103.606V28.2514H105.116V28.727C105.283 28.5434 105.48 28.4071 105.708 28.3181C105.942 28.2236 106.195 28.1763 106.468 28.1763C106.785 28.1763 107.069 28.2347 107.319 28.3515C107.569 28.4683 107.772 28.6464 107.928 28.8856C108.106 28.6575 108.332 28.4823 108.604 28.3599C108.877 28.2375 109.174 28.1763 109.497 28.1763Z" fill="white"/>
<path d="M114.679 31.6393C114.896 31.6393 115.083 31.6087 115.238 31.5476C115.4 31.4864 115.561 31.3862 115.722 31.2471L116.549 32.115C116.12 32.6045 115.48 32.8493 114.629 32.8493C114.101 32.8493 113.636 32.7492 113.236 32.5489C112.835 32.3486 112.524 32.0705 112.301 31.7144C112.084 31.3584 111.976 30.9551 111.976 30.5045C111.976 30.0594 112.084 29.6616 112.301 29.3112C112.518 28.9551 112.816 28.677 113.194 28.4767C113.578 28.2764 114.006 28.1763 114.479 28.1763C114.919 28.1763 115.319 28.2681 115.681 28.4517C116.048 28.6297 116.34 28.8939 116.557 29.2444C116.774 29.5893 116.882 30.001 116.882 30.4794L113.653 31.0969C113.825 31.4585 114.168 31.6393 114.679 31.6393ZM114.487 29.3028C114.215 29.3028 113.992 29.389 113.82 29.5615C113.647 29.7284 113.55 29.9704 113.528 30.2875L115.364 29.9287C115.308 29.7395 115.202 29.5893 115.047 29.4781C114.891 29.3612 114.704 29.3028 114.487 29.3028Z" fill="white"/>
<path d="M122.028 32.7742V30.396L120.868 32.3737H120.192L119.065 30.3626V32.7742H117.638V28.2514H119.307L120.567 30.6129L121.953 28.2514H123.446L123.455 32.7742H122.028Z" fill="white"/>
<path d="M126.677 32.9077C125.181 32.9077 124.433 32.2652 124.433 30.9801V28.2514H126.01V29.6867C126.127 29.6088 126.282 29.5448 126.477 29.4947C126.677 29.4447 126.906 29.4196 127.161 29.4196C127.718 29.4196 128.154 29.5615 128.472 29.8452C128.789 30.1234 128.947 30.5378 128.947 31.0886C128.947 31.6838 128.741 32.1372 128.33 32.4488C127.924 32.7548 127.373 32.9077 126.677 32.9077ZM129.323 28.2514H130.908V32.7742H129.323V28.2514ZM126.677 31.8229C126.894 31.8229 127.059 31.759 127.17 31.631C127.281 31.503 127.337 31.3334 127.337 31.122C127.337 30.9161 127.281 30.7548 127.17 30.638C127.059 30.5211 126.897 30.4627 126.686 30.4627C126.536 30.4627 126.402 30.4906 126.285 30.5462C126.168 30.6018 126.077 30.6769 126.01 30.7715V31.122C126.01 31.3389 126.065 31.5114 126.177 31.6393C126.288 31.7617 126.455 31.8229 126.677 31.8229Z" fill="white"/>
<path d="M4.88511 25.0039L9.57146 14.2102H11.1437V17.2639L7.81786 25.0039H10.2971V23.6131C10.2971 23.2745 10.8615 23.2503 11.1437 23.2806V27.5436C10.3697 27.5436 10.2568 27.2816 10.2971 27.1506V25.9412H7.36434L0.108048 42.1469H-0.164062L1.68024 36.5535C1.68024 36.5535 0.0475793 35.9186 0.591801 34.5581C1.13602 33.1975 4.40135 25.9412 4.40135 25.9412H0.591801V25.0039H4.88511Z" fill="#FF9900"/>
<path d="M17.0999 25.0039L12.4135 14.2102H10.8413V17.2639L14.1671 25.0039H11.6879V23.6131C11.6879 23.2745 11.1235 23.2503 10.8413 23.2806V27.5436C11.6153 27.5436 11.7282 27.2816 11.6879 27.1506V25.9412H14.6206L21.8769 42.1469H22.149L20.3047 36.5535C20.3047 36.5535 21.9374 35.9186 21.3932 34.5581C20.8489 33.1975 17.5836 25.9412 17.5836 25.9412H21.3932V25.0039H17.0999Z" fill="#FF9900"/>
<path fill-rule="evenodd" clip-rule="evenodd" d="M11.0229 12.638C12.7929 12.638 14.2278 11.2032 14.2278 9.43318C14.2278 7.66318 12.7929 6.22832 11.0229 6.22832C9.25292 6.22832 7.81806 7.66318 7.81806 9.43318C7.81806 11.2032 9.25292 12.638 11.0229 12.638ZM11.0229 14.3916C13.7614 14.3916 15.9814 12.1717 15.9814 9.43318C15.9814 6.69469 13.7614 4.47471 11.0229 4.47471C8.28443 4.47471 6.06445 6.69469 6.06445 9.43318C6.06445 12.1717 8.28443 14.3916 11.0229 14.3916Z" fill="white"/>
<path d="M10.1159 0H11.93V4.77706H10.1159V0Z" fill="white"/>
</g>
<defs>
<clipPath id="clip0_406480_4081">
<rect width="131" height="42" fill="white"/>
</clipPath>
</defs>
</svg>
